# xmcd CD database file
#
# Track frame offsets:
#	150
#	21424
#	44104
#	67496
#	94027
#	109638
#	130772
#	159512
#	182246
#	209092
#	230254
#	247521
#
# Disc length: 3584 seconds
#
# Revision: 0
# Processed by: cddbd v1.5.2PL0 Copyright (c) Steve Scherf et al.
# Submitted via: CDex 1.51
#
DISCID=aa0dfe0c
DTITLE=Laura Landsberg - Naturally
DYEAR=2005
DGENRE=Jazz
TTITLE0=Dindi
TTITLE1=Please Send Me Someone To Love
TTITLE2=Bye Bye Blackbird
TTITLE3=All The Way
TTITLE4=How Deep Is The Ocean
TTITLE5=Time After Time
TTITLE6=Alfie
TTITLE7=All Or Nothing At All
TTITLE8=My One And Only Love
TTITLE9=Come Sunday
TTITLE10=Confessin' The Blues
TTITLE11=A Child Is Born
EXTD=YEAR: 2005
EXTT0=
EXTT1=
EXTT2=
EXTT3=
EXTT4=
EXTT5=
EXTT6=
EXTT7=
EXTT8=
EXTT9=
EXTT10=
EXTT11=
PLAYORDER=
